<mxfile host="app.diagrams.net" agent="Mozilla/5.0 (Windows NT 10.0; Win64; x64) AppleWebKit/537.36 (KHTML, like Gecko) Chrome/135.0.0.0 Safari/537.36 Edg/135.0.0.0" version="26.2.14">
  <diagram name="第 1 页" id="X_3K7yg5Q5QRSCZpudBk">
    <mxGraphModel dx="1165" dy="713" grid="0" gridSize="10" guides="1" tooltips="1" connect="1" arrows="1" fold="1" page="1" pageScale="1" pageWidth="827" pageHeight="1169" math="0" shadow="0">
      <root>
        <mxCell id="0" />
        <mxCell id="1" parent="0" />
        <mxCell id="oMwBilcg_FnKpLkP8Q9a-4" value="" style="whiteSpace=wrap;html=1;aspect=fixed;" parent="1" vertex="1">
          <mxGeometry x="280" y="107.5" width="385" height="385" as="geometry" />
        </mxCell>
        <mxCell id="oMwBilcg_FnKpLkP8Q9a-14" style="rounded=0;orthogonalLoop=1;jettySize=auto;html=1;strokeColor=default;" parent="1" source="oMwBilcg_FnKpLkP8Q9a-1" target="oMwBilcg_FnKpLkP8Q9a-9" edge="1">
          <mxGeometry relative="1" as="geometry" />
        </mxCell>
        <mxCell id="oMwBilcg_FnKpLkP8Q9a-15" style="rounded=0;orthogonalLoop=1;jettySize=auto;html=1;entryX=0.091;entryY=0.667;entryDx=0;entryDy=0;entryPerimeter=0;" parent="1" target="oMwBilcg_FnKpLkP8Q9a-8" edge="1">
          <mxGeometry relative="1" as="geometry">
            <mxPoint x="170" y="300.0017241379309" as="sourcePoint" />
            <mxPoint x="300" y="183.45" as="targetPoint" />
          </mxGeometry>
        </mxCell>
        <mxCell id="oMwBilcg_FnKpLkP8Q9a-1" value="铁路管理局（SRBA）" style="shape=umlActor;verticalLabelPosition=bottom;verticalAlign=top;html=1;outlineConnect=0;" parent="1" vertex="1">
          <mxGeometry x="140" y="270" width="30" height="60" as="geometry" />
        </mxCell>
        <mxCell id="oMwBilcg_FnKpLkP8Q9a-8" value="实时风险监控" style="ellipse;whiteSpace=wrap;html=1;" parent="1" vertex="1">
          <mxGeometry x="358" y="130" width="110" height="60" as="geometry" />
        </mxCell>
        <mxCell id="oMwBilcg_FnKpLkP8Q9a-9" value="AI辅助生成/&lt;div&gt;获取报告&lt;/div&gt;" style="ellipse;whiteSpace=wrap;html=1;" parent="1" vertex="1">
          <mxGeometry x="320" y="260" width="110" height="60" as="geometry" />
        </mxCell>
        <mxCell id="oMwBilcg_FnKpLkP8Q9a-10" value="远程指挥" style="ellipse;whiteSpace=wrap;html=1;" parent="1" vertex="1">
          <mxGeometry x="390" y="390" width="110" height="60" as="geometry" />
        </mxCell>
        <mxCell id="oMwBilcg_FnKpLkP8Q9a-17" style="rounded=0;orthogonalLoop=1;jettySize=auto;html=1;exitX=0;exitY=1;exitDx=0;exitDy=0;entryX=1;entryY=0;entryDx=0;entryDy=0;dashed=1;" parent="1" source="oMwBilcg_FnKpLkP8Q9a-11" target="oMwBilcg_FnKpLkP8Q9a-10" edge="1">
          <mxGeometry relative="1" as="geometry" />
        </mxCell>
        <mxCell id="oMwBilcg_FnKpLkP8Q9a-18" value="&amp;lt;&amp;lt;extend&amp;gt;&amp;gt;" style="edgeLabel;html=1;align=center;verticalAlign=middle;resizable=0;points=[];" parent="oMwBilcg_FnKpLkP8Q9a-17" vertex="1" connectable="0">
          <mxGeometry x="-0.1192" y="1" relative="1" as="geometry">
            <mxPoint as="offset" />
          </mxGeometry>
        </mxCell>
        <mxCell id="oMwBilcg_FnKpLkP8Q9a-11" value="紧急协同响应" style="ellipse;whiteSpace=wrap;html=1;" parent="1" vertex="1">
          <mxGeometry x="520" y="290" width="110" height="60" as="geometry" />
        </mxCell>
        <mxCell id="oMwBilcg_FnKpLkP8Q9a-19" style="rounded=0;orthogonalLoop=1;jettySize=auto;html=1;dashed=1;" parent="1" source="oMwBilcg_FnKpLkP8Q9a-12" target="oMwBilcg_FnKpLkP8Q9a-8" edge="1">
          <mxGeometry relative="1" as="geometry" />
        </mxCell>
        <mxCell id="oMwBilcg_FnKpLkP8Q9a-20" value="&amp;lt;&amp;lt;include&amp;gt;&amp;gt;" style="edgeLabel;html=1;align=center;verticalAlign=middle;resizable=0;points=[];" parent="oMwBilcg_FnKpLkP8Q9a-19" vertex="1" connectable="0">
          <mxGeometry x="0.0326" relative="1" as="geometry">
            <mxPoint as="offset" />
          </mxGeometry>
        </mxCell>
        <mxCell id="oMwBilcg_FnKpLkP8Q9a-12" value="传感器数据收集" style="ellipse;whiteSpace=wrap;html=1;" parent="1" vertex="1">
          <mxGeometry x="510" y="210" width="110" height="60" as="geometry" />
        </mxCell>
        <mxCell id="oMwBilcg_FnKpLkP8Q9a-16" style="rounded=0;orthogonalLoop=1;jettySize=auto;html=1;entryX=-0.006;entryY=0.432;entryDx=0;entryDy=0;entryPerimeter=0;" parent="1" target="oMwBilcg_FnKpLkP8Q9a-10" edge="1">
          <mxGeometry relative="1" as="geometry">
            <mxPoint x="170" y="300" as="sourcePoint" />
          </mxGeometry>
        </mxCell>
        <mxCell id="SKPERAUeSg2hROx-xGF3-1" value="&lt;div data-docx-has-block-data=&quot;false&quot; data-lark-html-role=&quot;root&quot; data-page-id=&quot;YEhrdIaTvoggZvxtlEtc4QMWnRe&quot;&gt;&lt;div class=&quot;old-record-id-EgNMd8jZPobp9axW8APcuTESnOb&quot;&gt;&lt;strong&gt;博识牌铁路安管脚本&lt;/strong&gt;&lt;/div&gt;&lt;/div&gt;&lt;span class=&quot;lark-record-clipboard&quot; data-lark-record-format=&quot;docx/text&quot; data-lark-record-data=&quot;{&amp;quot;rootId&amp;quot;:&amp;quot;YEhrdIaTvoggZvxtlEtc4QMWnRe&amp;quot;,&amp;quot;text&amp;quot;:{&amp;quot;initialAttributedTexts&amp;quot;:{&amp;quot;text&amp;quot;:{&amp;quot;0&amp;quot;:&amp;quot;博识牌铁路安管脚本&amp;quot;},&amp;quot;attribs&amp;quot;:{&amp;quot;0&amp;quot;:&amp;quot;*0*1+9&amp;quot;}},&amp;quot;apool&amp;quot;:{&amp;quot;numToAttrib&amp;quot;:{&amp;quot;0&amp;quot;:[&amp;quot;author&amp;quot;,&amp;quot;7369065156772184067&amp;quot;],&amp;quot;1&amp;quot;:[&amp;quot;bold&amp;quot;,&amp;quot;true&amp;quot;]},&amp;quot;nextNum&amp;quot;:2}},&amp;quot;type&amp;quot;:&amp;quot;text&amp;quot;,&amp;quot;referenceRecordMap&amp;quot;:{},&amp;quot;extra&amp;quot;:{&amp;quot;channel&amp;quot;:&amp;quot;saas&amp;quot;,&amp;quot;isEqualBlockSelection&amp;quot;:false,&amp;quot;pasteRandomId&amp;quot;:&amp;quot;719aeff2-7f1b-4116-b2ea-c4e05b10d2c9&amp;quot;,&amp;quot;mention_page_title&amp;quot;:{},&amp;quot;external_mention_url&amp;quot;:{}},&amp;quot;isKeepQuoteContainer&amp;quot;:false,&amp;quot;isFromCode&amp;quot;:false,&amp;quot;selection&amp;quot;:[{&amp;quot;id&amp;quot;:34,&amp;quot;type&amp;quot;:&amp;quot;text&amp;quot;,&amp;quot;selection&amp;quot;:{&amp;quot;start&amp;quot;:44,&amp;quot;end&amp;quot;:53},&amp;quot;recordId&amp;quot;:&amp;quot;EgNMd8jZPobp9axW8APcuTESnOb&amp;quot;}],&amp;quot;payloadMap&amp;quot;:{},&amp;quot;isCut&amp;quot;:false}&quot;&gt;&lt;/span&gt;" style="text;html=1;align=center;verticalAlign=middle;whiteSpace=wrap;rounded=0;" vertex="1" parent="1">
          <mxGeometry x="280" y="107.5" width="120" height="32.5" as="geometry" />
        </mxCell>
      </root>
    </mxGraphModel>
  </diagram>
</mxfile>
